<?xml version="1.0" encoding="utf-8"?>
<!-- Generator: Adobe Illustrator 25.4.1, SVG Export Plug-In . SVG Version: 6.00 Build 0)  -->
<svg version="1.1" id="Capa_1" xmlns="http://www.w3.org/2000/svg" xmlns:xlink="http://www.w3.org/1999/xlink" x="0px" y="0px"
	 viewBox="0 0 258.5 126.8" style="enable-background:new 0 0 258.5 126.8;" xml:space="preserve">
<style type="text/css">
	.st0{fill-rule:evenodd;clip-rule:evenodd;fill:#FFFFFF;}
	.st1{fill:#FFFFFF;}
</style>
<g>
	<g>
		<polygon class="st0" points="21.1,5 69.1,5 51.5,13.3 51.5,20.6 47.4,20.6 47.4,13.3 42.9,13.3 42.9,20.6 38.6,20.6 38.6,13.3 		
			"/>
		<polygon class="st0" points="21.1,93.5 69.1,93.5 51.5,85.2 51.5,77.8 47.4,77.8 47.4,85.2 42.9,85.2 42.9,77.8 38.6,77.8 
			38.6,85.2 		"/>
		<polygon class="st0" points="4.5,26.2 12.8,43.8 20.1,43.8 20.1,47.9 12.8,47.9 12.8,52.5 20.1,52.5 20.1,56.7 12.8,56.7 
			4.5,72.4 		"/>
		<polygon class="st0" points="85.6,26.2 77.3,43.8 70,43.8 70,47.9 77.3,47.9 77.3,52.5 70,52.5 70,56.7 77.3,56.7 85.6,72.4 		"/>
		<path class="st1" d="M45.6,79.7h-1c-0.1-0.3-1.1-1.4-1.8-1.4H30.3c-4.4,0-10.6-5.7-10.6-9.7V20.1h50.8v48.5c0,4-6.3,9.7-10.7,9.7
			H47.4C46.5,78.3,45.7,79.4,45.6,79.7z M20.6,21.1v47.5c0,3.4,5.9,8.7,9.7,8.7h12.6c0.8,0,1.7,0.6,2.2,1.3c0.5-0.7,1.4-1.3,2.3-1.3
			h12.4c3.9,0,9.7-5.2,9.7-8.7V21.1H20.6z"/>
		<g>
			<path class="st1" d="M46.1,53.6c-1.7,0-3.2-1.3-3.2-2.8c0-1,0.8-2,1.6-2.6c0.1-0.1,0.3-0.1,0.3,0s0.1,0.3,0,0.3
				c-0.6,0.5-1.4,1.4-1.4,2.2c0,1.2,1.3,2.3,2.7,2.3c1.6,0,2.8-1.1,2.8-2.4c0-2.1-2.9-4.7-3.8-5c-0.1,0-0.2-0.2-0.2-0.3
				s0.2-0.2,0.3-0.2c1,0.3,4.2,3,4.2,5.5C49.4,52.3,47.9,53.6,46.1,53.6z"/>
			<path class="st1" d="M46.2,53.1c0,0-0.1,0-0.1,0c-1.3-0.6-2-1.2-2.2-1.9c-0.2-0.5-0.1-1.1,0.2-1.8c0.1-0.3,0.3-0.5,0.4-0.7
				c0.2-0.2,0.2-0.3,0.2-0.5c0-0.1,0.1-0.2,0.2-0.2s0.2,0.1,0.2,0.2c0,0.3-0.2,0.5-0.3,0.8c-0.1,0.2-0.3,0.4-0.4,0.7
				c-0.3,0.6-0.4,1-0.2,1.4c0.2,0.5,0.8,1.1,2,1.6c0.1,0.1,0.2,0.2,0.1,0.3C46.4,53,46.3,53.1,46.2,53.1z"/>
			<path class="st1" d="M46.5,53.1c-0.1,0-0.2,0-0.2-0.1c-0.1-0.1,0-0.3,0.1-0.3c0.9-0.6,1.3-1.2,1.4-1.8c0.1-0.9-0.7-1.9-1.6-2.9
				c-0.4-0.4-0.8-0.9-1.1-1.4c-0.1-0.1,0-0.3,0.1-0.3c0.1-0.1,0.3,0,0.3,0.1c0.3,0.5,0.7,0.9,1.1,1.3c1,1.1,1.8,2.2,1.7,3.3
				c-0.1,0.8-0.6,1.4-1.6,2.1C46.6,53.1,46.5,53.1,46.5,53.1z"/>
			<path class="st1" d="M46.3,52.7c0,0-0.1,0-0.2,0c-0.1-0.1-0.1-0.2,0-0.3c1.2-1.5,0.5-2.8-0.4-4.2c-0.1-0.2-0.2-0.3-0.3-0.5
				c-0.1-0.1,0-0.3,0.1-0.3s0.3,0,0.3,0.1c0.1,0.2,0.2,0.3,0.3,0.5c0.9,1.4,1.8,2.9,0.3,4.7C46.5,52.7,46.4,52.7,46.3,52.7z"/>
			<path class="st1" d="M45.9,52.7c0,0-0.1,0-0.1,0c-1.4-0.9-1-3.2-0.6-4.4c0-0.1,0.2-0.2,0.3-0.2s0.2,0.2,0.2,0.3
				c-0.3,1-0.7,3.1,0.4,3.9c0.1,0.1,0.1,0.2,0.1,0.3C46.1,52.7,46,52.7,45.9,52.7z"/>
		</g>
		<g>
			<path class="st1" d="M93.8,25.8h6.4v15.6c0,1.5,0.3,2.6,0.9,3.4s1.6,1.1,2.8,1.1c1.3,0,2.3-0.4,3-1.2s1.1-2,1.1-3.5V27.6h-1.9
				v-1.9h6.4v20.4h1.9V48h-6.2l-0.1-2.3c-0.9,0.9-1.8,1.6-2.8,2c-1,0.5-2.1,0.7-3.2,0.7c-2.1,0-3.7-0.6-4.8-1.8
				c-1.1-1.2-1.6-2.9-1.6-5.2V27.6h-1.9L93.8,25.8L93.8,25.8z"/>
			<path class="st1" d="M117.4,41.3V29.5l-1.5,0.4v-1.5l5.3-1.6h0.2l0,2.6c1.1-0.9,2.2-1.6,3.1-2.1c0.9-0.5,1.8-0.7,2.7-0.7
				c1.4,0,2.5,0.4,3.3,1.3s1.2,2,1.2,3.5v9.8h1.5v1.6h-6.9v-1.6h1.5V32c0-0.8-0.2-1.4-0.6-1.8s-1-0.6-1.8-0.6c-0.6,0-1.3,0.2-2,0.5
				c-0.7,0.3-1.3,0.8-2,1.3v10h1.5v1.6h-6.9v-1.6C115.9,41.4,117.4,41.4,117.4,41.3z"/>
			<path class="st1" d="M139.8,26.8h0.2c-0.1,0.5-0.1,0.9-0.1,1.2s0,0.7,0,1.1v12.3h1.5v1.6h-6.9v-1.6h1.5V29.5l-1.5,0.4v-1.5
				L139.8,26.8z M135.5,23.5c0-0.6,0.2-1.1,0.7-1.6c0.4-0.4,1-0.7,1.6-0.7c0.6,0,1.2,0.2,1.6,0.6c0.4,0.4,0.6,1,0.6,1.6
				c0,0.6-0.2,1.2-0.7,1.6c-0.4,0.5-1,0.7-1.6,0.7c-0.6,0-1.1-0.2-1.6-0.7C135.7,24.6,135.5,24.1,135.5,23.5z"/>
			<path class="st1" d="M145.8,26.8c0.1,0.5,0.2,1,0.4,1.6c0.2,0.5,0.4,1.1,0.6,1.7c0.9-1.2,1.7-2,2.4-2.5c0.6-0.5,1.4-0.7,2.1-0.7
				c0.5,0,1.2,0.1,2.1,0.3c0.9,0.2,1.6,0.3,1.9,0.3c0.3,0,0.5,0,0.8-0.1c0.2-0.1,0.5-0.2,0.9-0.4l0.7,0.7c-0.3,0.4-0.6,1.1-1,2.1
				c-0.1,0.2-0.1,0.4-0.2,0.5l-4.3,10.2c-0.2,0.4-0.3,0.9-0.4,1.3c-0.1,0.4-0.2,0.8-0.3,1.2h-3.2c-0.1-0.5-0.4-1.2-0.8-2
				c0-0.1-0.1-0.2-0.1-0.2L142.6,30l-1.3,0.5l-0.6-1.2L145.8,26.8z M154.7,30c-0.2,0.1-0.4,0.2-0.5,0.3c-0.2,0.1-0.4,0.1-0.7,0.1
				c-0.3,0-0.9-0.1-1.7-0.4c-0.8-0.2-1.4-0.4-1.8-0.4c-0.5,0-0.9,0.1-1.4,0.4s-0.9,0.6-1.3,1.2l3.4,8.1L154.7,30z"/>
			<path class="st1" d="M169.8,33.7l-8.2,2.7c0.4,1.3,1.1,2.3,1.9,3s1.9,1,3.1,1c0.8,0,1.6-0.2,2.4-0.5s1.4-0.8,2.1-1.4l1,1
				c-1,1.2-2.1,2.2-3.4,2.9s-2.7,1-4.1,1c-2.1,0-3.9-0.8-5.3-2.3c-1.4-1.5-2.1-3.5-2.1-5.9c0-2.4,0.8-4.4,2.3-6
				c1.5-1.6,3.4-2.4,5.5-2.4c1,0,2,0.2,2.8,0.6c0.9,0.4,1.7,1.1,2.4,1.9c0.5,0.6,0.9,1.3,1.3,2c0.4,0.8,0.5,1.3,0.5,1.5
				c0,0.2-0.3,0.3-1,0.5C170.5,33.5,170.1,33.6,169.8,33.7z M167.9,32.4c-0.4-1.2-0.9-2.1-1.6-2.8c-0.7-0.7-1.4-1-2.2-1
				c-0.9,0-1.6,0.4-2.2,1.2c-0.6,0.8-0.9,1.8-0.9,3c0,0.3,0,0.6,0,0.9c0,0.3,0.1,0.6,0.1,0.9L167.9,32.4z"/>
			<path class="st1" d="M183.6,26.7l1.3,0.6l-1.9,4.2c-0.6-0.4-1-0.6-1.4-0.8c-0.4-0.1-0.8-0.2-1.1-0.2c-0.6,0-1.1,0.2-1.5,0.7
				s-0.6,1.1-0.6,2v8.2h1.9V43h-7.3v-1.6h1.5v-9.5c0-0.5-0.1-0.8-0.1-0.9s-0.2-0.3-0.5-0.4l-0.7,0.7l-1.1-1l2.8-3.5
				c0.9,0.5,1.5,0.9,2,1.4s0.8,1,1,1.6c0.6-1.1,1.1-1.8,1.6-2.3s1-0.7,1.5-0.7c0.3,0,0.6,0.1,1,0.2c0.4,0.1,0.8,0.3,1.2,0.6
				L183.6,26.7z"/>
			<path class="st1" d="M195,28.3l-1.8,2.6c-0.9-0.8-1.6-1.4-2.3-1.8c-0.7-0.4-1.3-0.5-1.9-0.5c-0.5,0-0.9,0.1-1.2,0.4
				c-0.3,0.3-0.5,0.6-0.5,1c0,0.8,1.3,1.8,3.9,3c0.1,0,0.1,0,0.1,0.1c1.6,0.7,2.7,1.4,3.3,2.1c0.5,0.7,0.8,1.6,0.8,2.7
				c0,1.5-0.6,2.8-1.8,3.9c-1.2,1.1-2.7,1.6-4.5,1.6c-1.1,0-2.2-0.2-3.2-0.6c-1-0.4-1.9-1-2.7-1.8l2.1-3c1.1,1.1,2,2,2.8,2.5
				s1.6,0.8,2.4,0.8c0.6,0,1.1-0.2,1.5-0.5c0.4-0.4,0.6-0.8,0.6-1.4c0-0.8-1-1.7-3-2.7c-0.1,0-0.2-0.1-0.2-0.1c-2.1-1-3.4-1.9-4-2.6
				s-0.8-1.6-0.8-2.6c0-1.4,0.5-2.5,1.6-3.4c1-0.9,2.4-1.3,3.9-1.3c0.9,0,1.7,0.1,2.5,0.4C193.3,27.4,194.2,27.8,195,28.3z"/>
			<path class="st1" d="M201.5,26.8h0.2c-0.1,0.5-0.1,0.9-0.1,1.2s0,0.7,0,1.1v12.3h1.5v1.6h-6.9v-1.6h1.5V29.5l-1.5,0.4v-1.5
				L201.5,26.8z M197.1,23.5c0-0.6,0.2-1.1,0.7-1.6c0.4-0.4,1-0.7,1.6-0.7c0.6,0,1.2,0.2,1.6,0.6c0.4,0.4,0.6,1,0.6,1.6
				c0,0.6-0.2,1.2-0.7,1.6c-0.4,0.5-1,0.7-1.6,0.7c-0.6,0-1.1-0.2-1.6-0.7C197.4,24.6,197.1,24.1,197.1,23.5z"/>
			<path class="st1" d="M220.4,20.4V22l-1.4,0.5v18.9h1.5v1.6h-5.1l-0.3-1.9c-0.8,0.8-1.6,1.3-2.4,1.7c-0.8,0.4-1.7,0.6-2.5,0.6
				c-1.9,0-3.4-0.7-4.5-2.1c-1.2-1.4-1.8-3.3-1.8-5.6c0-2.5,0.7-4.7,2.2-6.4s3.2-2.5,5.2-2.5c0.7,0,1.4,0.1,2,0.3
				c0.6,0.2,1.2,0.5,1.8,0.9v-4.2l-1.4,0.5v-1.7L220.4,20.4z M215,32.1c0-1.1-0.3-2-0.9-2.6c-0.6-0.6-1.4-1-2.4-1
				c-1.1,0-2,0.5-2.8,1.6c-0.7,1.1-1.1,2.4-1.1,4.1c0,1.9,0.4,3.4,1.2,4.6c0.8,1.2,1.8,1.8,3,1.8c0.5,0,1-0.1,1.6-0.4
				c0.5-0.3,1-0.6,1.4-1.1L215,32.1L215,32.1z"/>
			<path class="st1" d="M224.6,26.4l1.4,0.4l-0.3,1.1c0.7-0.4,1.4-0.7,2-0.9c0.7-0.2,1.3-0.3,2-0.3c1.8,0,3.1,0.5,4,1.4
				c0.9,0.9,1.3,2.3,1.3,4.1v9.2h1.5v1.6h-5.1l-0.4-1.8c-0.7,0.8-1.4,1.3-2.2,1.7c-0.8,0.4-1.6,0.6-2.5,0.6c-1.4,0-2.7-0.5-3.6-1.5
				c-1-1-1.5-2.2-1.5-3.7c0-1.8,0.7-3.2,2-4.2c1.4-1,3.3-1.5,5.9-1.5c0.3,0,0.7,0,1,0c0.3,0,0.6,0,1,0.1v-1.1c0-0.8-0.2-1.4-0.7-1.9
				s-1.1-0.7-1.9-0.7c-0.8,0-1.6,0.2-2.2,0.7c-0.7,0.5-1.3,1.1-1.7,2l-1.5-0.5L224.6,26.4z M231.2,34.2c-0.2,0-0.5-0.1-0.7-0.1
				c-0.2,0-0.5,0-0.8,0c-1.3,0-2.4,0.3-3.2,1c-0.8,0.7-1.2,1.5-1.2,2.6c0,0.9,0.3,1.7,0.8,2.2c0.6,0.6,1.3,0.9,2.2,0.9
				c0.9,0,1.7-0.3,2.2-0.9c0.5-0.6,0.8-1.5,0.8-2.6L231.2,34.2L231.2,34.2z"/>
			<path class="st1" d="M253.9,20.4V22l-1.4,0.5v18.9h1.5v1.6h-5.1l-0.3-1.9c-0.8,0.8-1.6,1.3-2.4,1.7c-0.8,0.4-1.7,0.6-2.5,0.6
				c-1.9,0-3.4-0.7-4.5-2.1c-1.2-1.4-1.8-3.3-1.8-5.6c0-2.5,0.7-4.7,2.2-6.4s3.2-2.5,5.2-2.5c0.7,0,1.4,0.1,2,0.3
				c0.6,0.2,1.2,0.5,1.8,0.9v-4.2l-1.5,0.5v-1.7L253.9,20.4z M248.5,32.1c0-1.1-0.3-2-0.9-2.6c-0.6-0.6-1.4-1-2.4-1
				c-1.1,0-2,0.5-2.8,1.6c-0.7,1.1-1.1,2.4-1.1,4.1c0,1.9,0.4,3.4,1.2,4.6c0.8,1.2,1.8,1.8,3,1.8c0.5,0,1-0.1,1.6-0.4
				c0.5-0.3,1-0.6,1.4-1.1L248.5,32.1L248.5,32.1z"/>
			<g>
				<path class="st1" d="M115.9,46.2h8.3c3.1,0,5.5,0.7,7.3,2.2s2.6,3.4,2.6,6c0,2.3-0.8,4.3-2.4,5.8s-3.6,2.3-6,2.3
					c-0.7,0-1.3,0-1.8-0.1c-0.6-0.1-1.1-0.2-1.6-0.5v4.7h2.2v1.9h-8.6v-1.9h1.9V48h-1.9L115.9,46.2L115.9,46.2z M122.3,48.2v9.2
					c0,1.2,0.2,2,0.6,2.5s1.1,0.7,2,0.7c1.3,0,2.4-0.5,3.2-1.6c0.8-1,1.2-2.5,1.2-4.3c0-2.1-0.5-3.7-1.6-4.8c-1-1.2-2.5-1.7-4.4-1.7
					H122.3z"/>
				<path class="st1" d="M142.3,68.9c-2.5,0-4.5-0.8-6.2-2.3s-2.4-3.5-2.4-6c0-2.4,0.8-4.4,2.4-6c1.6-1.6,3.7-2.4,6.2-2.4
					c2.5,0,4.5,0.8,6.2,2.4s2.4,3.6,2.4,6c0,2.4-0.8,4.4-2.4,6C146.9,68.1,144.8,68.9,142.3,68.9z M137.9,59.4c0,2.1,0.5,4,1.5,5.5
					c1,1.5,2.2,2.3,3.5,2.3c1.2,0,2.1-0.5,2.8-1.4c0.7-0.9,1-2.2,1-3.9c0-2.2-0.5-4-1.5-5.5S143,54,141.6,54c-1.1,0-2,0.5-2.7,1.4
					C138.3,56.4,137.9,57.7,137.9,59.4z"/>
				<path class="st1" d="M153.3,66.9V55.1l-1.5,0.4v-1.5l5.3-1.6h0.2l0,2.6c1.1-0.9,2.1-1.6,3.1-2.1c0.9-0.5,1.8-0.7,2.6-0.7
					c1.4,0,2.5,0.4,3.3,1.3s1.2,2,1.2,3.5v9.8h1.5v1.6h-6.9v-1.6h1.5v-9.3c0-0.8-0.2-1.4-0.6-1.8c-0.4-0.4-1-0.6-1.8-0.6
					c-0.6,0-1.3,0.2-2,0.5c-0.7,0.3-1.3,0.8-2,1.3v10h1.5v1.6h-6.9v-1.6L153.3,66.9L153.3,66.9z"/>
				<path class="st1" d="M174.6,49.1l1.1,0.3v3.5h3.1l-0.2,1.3c0,0.3-0.1,0.5-0.2,0.5s-0.3,0.1-0.6,0.1h-2.1v9.3
					c0,0.8,0.1,1.4,0.4,1.7c0.2,0.4,0.6,0.5,1.1,0.5c0.2,0,0.5,0,0.7-0.1c0.2-0.1,0.5-0.2,0.9-0.5l0.7,1c-0.7,0.7-1.4,1.2-2.1,1.5
					s-1.5,0.5-2.3,0.5c-1.2,0-2-0.3-2.6-0.9s-0.8-1.6-0.8-3V54.9H170v-1.3c1.1-0.5,2.1-1.1,2.9-1.8C173.7,51,174.2,50.1,174.6,49.1z
					"/>
				<path class="st1" d="M185.1,52.3h0.2c-0.1,0.5-0.1,0.9-0.1,1.2s0,0.7,0,1.1v12.3h1.5v1.6h-6.9v-1.6h1.5V55l-1.5,0.4v-1.5
					L185.1,52.3z M180.7,49c0-0.6,0.2-1.1,0.7-1.6c0.4-0.4,1-0.7,1.6-0.7c0.6,0,1.2,0.2,1.6,0.7c0.4,0.4,0.6,1,0.6,1.6
					s-0.2,1.2-0.7,1.6s-1,0.7-1.6,0.7c-0.6,0-1.1-0.2-1.6-0.7C180.9,50.1,180.7,49.6,180.7,49z"/>
				<path class="st1" d="M188,68.4v-1.6h1.5V55.2h-2.1l0.7-2h1.6c-0.3-0.4-0.6-0.8-0.7-1.2c-0.2-0.4-0.2-0.8-0.2-1.2
					c0-1.2,0.6-2.3,1.8-3.4c1.2-1,2.5-1.6,3.9-1.6c0.7,0,1.4,0.1,2,0.4s1.1,0.6,1.6,1.1l-2.5,2.1c-0.5-0.6-0.9-1.1-1.2-1.3
					c-0.3-0.2-0.6-0.3-1-0.3c-0.5,0-0.9,0.2-1.2,0.5c-0.3,0.4-0.5,0.8-0.5,1.4c0,1,0.4,1.8,1.1,2.5c0.7,0.7,1.7,1,2.7,1h1.5l-0.8,2
					h-2.8v11.6h2.2v1.6L188,68.4L188,68.4z"/>
				<path class="st1" d="M202.3,52.3h0.2c-0.1,0.5-0.1,0.9-0.1,1.2s0,0.7,0,1.1v12.3h1.5v1.6h-6.9v-1.6h1.5V55l-1.5,0.4v-1.5
					L202.3,52.3z M197.9,49c0-0.6,0.2-1.1,0.7-1.6c0.4-0.4,1-0.7,1.6-0.7c0.6,0,1.2,0.2,1.6,0.7c0.4,0.4,0.6,1,0.6,1.6
					s-0.2,1.2-0.7,1.6s-1,0.7-1.6,0.7c-0.6,0-1.1-0.2-1.6-0.7C198.2,50.1,197.9,49.6,197.9,49z"/>
				<path class="st1" d="M218.9,55.2l-2.9,2.6c-0.5-1.2-1.1-2.2-1.8-2.8c-0.7-0.6-1.4-0.9-2.3-0.9c-1.1,0-2,0.5-2.7,1.4
					c-0.7,0.9-1.1,2.1-1.1,3.5c0,1.9,0.5,3.5,1.6,4.9c1.1,1.4,2.4,2.1,3.8,2.1c0.8,0,1.5-0.2,2.2-0.6s1.4-0.9,1.9-1.7l0.9,0.8
					c-0.7,1.3-1.7,2.4-2.9,3.2s-2.5,1.1-3.9,1.1c-2.2,0-4-0.7-5.3-2.1c-1.4-1.4-2-3.3-2-5.6c0-2.5,0.8-4.6,2.4-6.3
					c1.6-1.8,3.6-2.6,5.8-2.6c1.2,0,2.3,0.2,3.3,0.7C217.2,53.5,218.1,54.2,218.9,55.2z"/>
				<path class="st1" d="M225,52.3h0.2c-0.1,0.5-0.1,0.9-0.1,1.2s0,0.7,0,1.1v12.3h1.5v1.6h-6.9v-1.6h1.4V55l-1.4,0.4v-1.5L225,52.3
					z M220.6,49c0-0.6,0.2-1.1,0.7-1.6c0.4-0.4,1-0.7,1.6-0.7c0.6,0,1.2,0.2,1.6,0.7c0.4,0.4,0.6,1,0.6,1.6s-0.2,1.2-0.7,1.6
					s-1,0.7-1.6,0.7c-0.6,0-1.1-0.2-1.6-0.7C220.9,50.1,220.6,49.6,220.6,49z"/>
				<path class="st1" d="M230.7,51.9l1.4,0.4l-0.3,1.1c0.7-0.4,1.4-0.7,2-0.9c0.7-0.2,1.3-0.3,2-0.3c1.8,0,3.1,0.5,4,1.4
					c0.9,0.9,1.3,2.3,1.3,4.1v9.2h1.4v1.6h-5.1l-0.4-1.8c-0.7,0.8-1.4,1.3-2.2,1.7c-0.8,0.4-1.6,0.6-2.5,0.6c-1.4,0-2.7-0.5-3.6-1.5
					c-1-1-1.5-2.2-1.5-3.7c0-1.8,0.7-3.2,2-4.2c1.4-1,3.3-1.5,5.9-1.5c0.3,0,0.7,0,1,0c0.3,0,0.6,0,1,0.1v-1.1
					c0-0.8-0.2-1.4-0.7-1.8s-1.1-0.7-1.9-0.7c-0.8,0-1.6,0.2-2.2,0.7c-0.7,0.5-1.3,1.1-1.7,2l-1.5-0.5L230.7,51.9z M237.2,59.8
					c-0.2,0-0.5-0.1-0.7-0.1c-0.2,0-0.5,0-0.8,0c-1.3,0-2.4,0.3-3.2,1c-0.8,0.7-1.2,1.5-1.2,2.6c0,0.9,0.3,1.7,0.8,2.2
					s1.3,0.9,2.2,0.9c0.9,0,1.7-0.3,2.2-0.9c0.5-0.6,0.8-1.5,0.8-2.6L237.2,59.8L237.2,59.8z"/>
			</g>
			<g>
				<path class="st1" d="M108.8,80.2c2,0.2,3.6,0.9,4.8,2c1.1,1.2,1.7,2.6,1.7,4.5c0,2.2-0.7,3.9-2.2,5.2c-1.5,1.3-3.4,2-5.8,2h-9.8
					v-1.9h1.9V73.5h-1.9v-1.9h8.7c2.2,0,3.9,0.4,5,1.2c1.1,0.8,1.7,1.9,1.7,3.4c0,1-0.4,1.8-1.1,2.5C111,79.5,110,80,108.8,80.2z
					 M103.7,79.4h1.4c1.1,0,2-0.2,2.6-0.7s0.9-1.2,0.9-2.1c0-0.9-0.3-1.6-0.9-2.1c-0.6-0.5-1.6-0.7-2.8-0.7h-1.2V79.4z M103.7,81.5
					v10.4h1.6c1.8,0,3.2-0.4,4.1-1.3s1.3-2.2,1.3-3.9c0-1.7-0.4-3-1.3-3.9c-0.9-0.9-2.2-1.4-3.8-1.4L103.7,81.5L103.7,81.5z"/>
				<path class="st1" d="M124.1,94.4c-2.5,0-4.5-0.8-6.2-2.3c-1.6-1.6-2.4-3.6-2.4-6c0-2.4,0.8-4.4,2.4-6c1.6-1.6,3.7-2.4,6.2-2.4
					s4.5,0.8,6.2,2.4s2.4,3.6,2.4,6c0,2.4-0.8,4.4-2.4,6C128.6,93.6,126.5,94.4,124.1,94.4z M119.7,84.9c0,2.1,0.5,4,1.5,5.5
					s2.2,2.3,3.5,2.3c1.2,0,2.1-0.5,2.8-1.4s1-2.2,1-3.9c0-2.2-0.5-4-1.5-5.5s-2.2-2.3-3.6-2.3c-1.1,0-2,0.5-2.7,1.4
					C120,81.9,119.7,83.2,119.7,84.9z"/>
				<path class="st1" d="M140.3,71.4V73l-1.4,0.5v18.9h1.5v1.6h-6.9v-1.6h1.4V74.8l-1.4,0.5v-1.7L140.3,71.4z"/>
				<path class="st1" d="M147.1,77.8h0.2c-0.1,0.4-0.1,0.9-0.1,1.2s0,0.7,0,1.1v12.3h1.5v1.6h-6.9v-1.6h1.5V80.5l-1.5,0.4v-1.5
					L147.1,77.8z M142.8,74.5c0-0.6,0.2-1.1,0.7-1.6s1-0.7,1.6-0.7c0.6,0,1.2,0.2,1.6,0.7c0.4,0.4,0.6,1,0.6,1.6s-0.2,1.2-0.7,1.6
					s-1,0.7-1.6,0.7c-0.6,0-1.1-0.2-1.6-0.7C143,75.6,142.8,75.1,142.8,74.5z"/>
				<path class="st1" d="M153.1,77.8c0.1,0.5,0.2,1,0.4,1.6c0.2,0.5,0.4,1.1,0.6,1.7c0.9-1.2,1.7-2,2.4-2.5c0.6-0.4,1.4-0.7,2.1-0.7
					c0.5,0,1.2,0.1,2.1,0.3s1.6,0.3,1.9,0.3c0.3,0,0.5,0,0.8-0.1c0.2-0.1,0.5-0.2,0.8-0.4l0.7,0.7c-0.3,0.4-0.6,1.1-1,2.1
					c-0.1,0.2-0.1,0.4-0.2,0.4l-4.3,10.2c-0.2,0.4-0.3,0.9-0.4,1.3c-0.1,0.4-0.2,0.8-0.3,1.2h-3.2c-0.1-0.5-0.4-1.2-0.8-2
					c0-0.1-0.1-0.2-0.1-0.2L149.9,81l-1.3,0.6l-0.6-1.2L153.1,77.8z M162,81c-0.2,0.1-0.4,0.2-0.5,0.3s-0.4,0.1-0.7,0.1
					c-0.3,0-0.9-0.1-1.7-0.3c-0.8-0.2-1.4-0.3-1.8-0.3c-0.5,0-0.9,0.1-1.4,0.4c-0.4,0.3-0.9,0.7-1.3,1.2l3.4,8.1L162,81z"/>
				<path class="st1" d="M167.8,77.4l1.4,0.4L169,79c0.7-0.4,1.4-0.7,2.1-0.9c0.7-0.2,1.3-0.3,2-0.3c1.8,0,3.1,0.4,4,1.4
					c0.9,0.9,1.3,2.3,1.3,4.1v9.2h1.5V94h-5.1l-0.4-1.8c-0.7,0.8-1.4,1.3-2.2,1.7c-0.8,0.4-1.6,0.6-2.5,0.6c-1.4,0-2.7-0.5-3.6-1.5
					c-1-1-1.5-2.2-1.5-3.7c0-1.8,0.7-3.2,2-4.2c1.4-1,3.3-1.4,5.9-1.4c0.3,0,0.7,0,1,0c0.3,0,0.6,0,1,0.1v-1.1
					c0-0.8-0.2-1.4-0.7-1.8c-0.5-0.4-1.1-0.7-1.9-0.7c-0.8,0-1.6,0.2-2.2,0.7c-0.7,0.4-1.3,1.1-1.7,1.9l-1.5-0.5L167.8,77.4z
					 M174.4,85.3c-0.2,0-0.5-0.1-0.7-0.1c-0.2,0-0.5,0-0.8,0c-1.3,0-2.4,0.3-3.2,1c-0.8,0.7-1.2,1.6-1.2,2.6c0,0.9,0.3,1.7,0.8,2.2
					s1.3,0.9,2.2,0.9c0.9,0,1.7-0.3,2.2-0.9c0.5-0.6,0.8-1.5,0.8-2.6L174.4,85.3L174.4,85.3z"/>
				<path class="st1" d="M191.8,77.7l1.3,0.6l-1.9,4.2c-0.6-0.4-1-0.6-1.4-0.8c-0.4-0.1-0.8-0.2-1.1-0.2c-0.6,0-1.1,0.2-1.5,0.7
					s-0.6,1.1-0.6,2v8.2h1.9V94h-7.3v-1.6h1.5v-9.4c0-0.5-0.1-0.8-0.1-0.9s-0.2-0.3-0.5-0.4l-0.7,0.7l-1.1-1l2.8-3.5
					c0.9,0.4,1.5,0.9,2,1.3c0.5,0.4,0.8,1,1,1.6c0.6-1.1,1.1-1.8,1.6-2.3c0.5-0.4,1-0.7,1.5-0.7c0.3,0,0.6,0.1,1,0.2
					c0.4,0.1,0.8,0.3,1.2,0.6L191.8,77.7z"/>
				<path class="st1" d="M198.3,77.8h0.2c-0.1,0.4-0.1,0.9-0.1,1.2s0,0.7,0,1.1v12.3h1.5v1.6h-6.9v-1.6h1.5V80.5l-1.5,0.4v-1.5
					L198.3,77.8z M193.9,74.5c0-0.6,0.2-1.1,0.7-1.6s1-0.7,1.6-0.7c0.6,0,1.2,0.2,1.6,0.7s0.6,1,0.6,1.6s-0.2,1.2-0.7,1.6
					s-1,0.7-1.6,0.7c-0.6,0-1.1-0.2-1.6-0.7C194.1,75.6,193.9,75.1,193.9,74.5z"/>
				<path class="st1" d="M203.9,77.4l1.4,0.4l-0.3,1.1c0.7-0.4,1.4-0.7,2-0.9s1.3-0.3,2-0.3c1.8,0,3.1,0.4,4,1.4
					c0.9,0.9,1.3,2.3,1.3,4.1v9.2h1.5V94h-5.1l-0.4-1.8c-0.7,0.8-1.4,1.3-2.2,1.7c-0.8,0.4-1.6,0.6-2.5,0.6c-1.4,0-2.7-0.5-3.6-1.5
					c-1-1-1.5-2.2-1.5-3.7c0-1.8,0.7-3.2,2-4.2c1.4-1,3.3-1.4,5.9-1.4c0.3,0,0.7,0,1,0c0.3,0,0.6,0,1,0.1v-1.1
					c0-0.8-0.2-1.4-0.7-1.8c-0.5-0.4-1.1-0.7-1.9-0.7c-0.8,0-1.6,0.2-2.2,0.7c-0.7,0.4-1.3,1.1-1.7,1.9l-1.5-0.5L203.9,77.4z
					 M210.5,85.3c-0.2,0-0.5-0.1-0.7-0.1c-0.2,0-0.5,0-0.8,0c-1.3,0-2.4,0.3-3.2,1c-0.8,0.7-1.2,1.6-1.2,2.6c0,0.9,0.3,1.7,0.8,2.2
					s1.3,0.9,2.2,0.9c0.9,0,1.7-0.3,2.2-0.9c0.5-0.6,0.8-1.5,0.8-2.6L210.5,85.3L210.5,85.3z"/>
				<path class="st1" d="M218.7,92.4V80.6l-1.5,0.4v-1.5l5.3-1.6h0.2l0,2.7c1.1-0.9,2.1-1.6,3.1-2.1c0.9-0.4,1.8-0.7,2.6-0.7
					c1.4,0,2.5,0.4,3.3,1.3s1.2,2,1.2,3.5v9.8h1.5V94h-6.9v-1.6h1.5v-9.3c0-0.8-0.2-1.4-0.6-1.8c-0.4-0.4-1-0.6-1.7-0.6
					c-0.6,0-1.3,0.2-2,0.5c-0.7,0.3-1.3,0.8-2,1.3v10h1.5V94h-6.9v-1.6L218.7,92.4L218.7,92.4z"/>
				<path class="st1" d="M238.5,77.4l1.4,0.4l-0.3,1.1c0.7-0.4,1.4-0.7,2-0.9s1.3-0.3,2-0.3c1.8,0,3.1,0.4,4,1.4s1.3,2.3,1.3,4.1
					v9.2h1.5V94h-5.1l-0.4-1.8c-0.7,0.8-1.4,1.3-2.2,1.7c-0.8,0.4-1.6,0.6-2.5,0.6c-1.4,0-2.7-0.5-3.6-1.5c-1-1-1.5-2.2-1.5-3.7
					c0-1.8,0.7-3.2,2-4.2c1.4-1,3.3-1.4,5.9-1.4c0.3,0,0.7,0,1,0c0.3,0,0.6,0,1,0.1v-1.1c0-0.8-0.2-1.4-0.7-1.8
					c-0.5-0.4-1.1-0.7-1.9-0.7c-0.8,0-1.6,0.2-2.2,0.7c-0.7,0.4-1.3,1.1-1.7,1.9l-1.5-0.5L238.5,77.4z M245.1,85.3
					c-0.2,0-0.5-0.1-0.7-0.1c-0.2,0-0.5,0-0.8,0c-1.3,0-2.4,0.3-3.2,1c-0.8,0.7-1.2,1.6-1.2,2.6c0,0.9,0.3,1.7,0.8,2.2
					s1.3,0.9,2.2,0.9c0.9,0,1.7-0.3,2.2-0.9c0.5-0.6,0.8-1.5,0.8-2.6L245.1,85.3L245.1,85.3z"/>
			</g>
		</g>
		<g>
			<path class="st0" d="M58.3,62.4c-0.4-0.2-0.9-0.3-1.5-0.3c-0.3,0-0.5,0-0.7,0s-0.3,0-0.4,0v3.6c0.5,0.1,1,0.2,1.4,0.2
				c0.8,0,1.3-0.2,1.7-0.5c0.4-0.3,0.6-0.8,0.6-1.3c0-0.3-0.1-0.7-0.3-1C59,62.8,58.8,62.6,58.3,62.4z"/>
			<path class="st0" d="M56.9,61.7c0.6,0,1.1-0.1,1.4-0.2c0.3-0.1,0.5-0.3,0.7-0.6c0.2-0.3,0.2-0.6,0.2-0.9c0-0.5-0.2-1-0.6-1.3
				c-0.4-0.4-1-0.5-1.8-0.5c-0.4,0-0.8,0-1.1,0.1v3.4c0.2,0,0.3,0,0.5,0.1C56.5,61.7,56.7,61.7,56.9,61.7z"/>
			<path class="st0" d="M47.2,58.4c-0.3-0.2-0.6-0.2-1-0.2c-0.2,0-0.5,0-0.9,0.1v3.7c0.2,0,0.5,0.1,0.6,0.1c0.2,0,0.3,0,0.5,0
				c0.5,0,0.9-0.2,1.2-0.5s0.5-0.8,0.5-1.4c0-0.4-0.1-0.7-0.2-1.1C47.7,58.8,47.5,58.5,47.2,58.4z"/>
			<polygon class="st0" points="33.2,36.8 36.3,36.8 34.8,33.2 			"/>
			<path class="st0" d="M26.1,26.2v42.4c0,1.9,2.3,3.8,4.1,3.8h12.6c0.9,0,2.3,1.3,2.3,1.9c0-0.5,1.2-1.9,2.3-1.9h12.4
				c2.4,0,4.1-1.9,4.1-3.8V26.2H26.1z M38.8,57.9h-0.3c-0.4,0-0.6,0.2-0.8,0.4c-0.1,0.1-0.1,0.5-0.1,0.9v3.6c0,0.9-0.1,1.6-0.3,2.1
				s-0.5,0.9-1.1,1.2c-0.5,0.3-1.2,0.5-2.2,0.5c-1,0-1.7-0.2-2.3-0.5c-0.5-0.3-0.9-0.8-1.1-1.3c-0.1-0.4-0.2-1.1-0.2-2.2v-3.4
				c0-0.5-0.1-0.9-0.2-1.1s-0.4-0.2-0.7-0.2h-0.3v-0.2h3.9v0.2h-0.3c-0.4,0-0.6,0.1-0.8,0.3c-0.1,0.2-0.2,0.5-0.2,1V63
				c0,0.3,0,0.7,0.1,1.2c0.1,0.4,0.2,0.8,0.4,1c0.2,0.2,0.4,0.4,0.7,0.6c0.3,0.2,0.7,0.2,1.2,0.2c0.6,0,1.1-0.1,1.6-0.4
				c0.5-0.2,0.8-0.6,1-1s0.3-1.1,0.3-2v-3.6c0-0.5-0.1-0.9-0.2-1c-0.2-0.2-0.4-0.3-0.8-0.3h-0.3v-0.2h3.2L38.8,57.9L38.8,57.9z
				 M40,40.3h-3.5v-0.2c0.4,0,0.6-0.1,0.7-0.2c0.1-0.1,0.2-0.2,0.2-0.4c0-0.2-0.1-0.5-0.3-0.9l-0.5-1.3H33l-0.6,1.4
				c-0.2,0.3-0.2,0.6-0.2,0.8c0,0.1,0.1,0.3,0.2,0.4c0.1,0.1,0.4,0.2,0.8,0.2v0.2h-2.8v-0.2c0.4-0.1,0.6-0.2,0.7-0.3
				c0.2-0.2,0.5-0.6,0.8-1.3l3.2-7.3h0.2l3.1,7.4c0.2,0.6,0.5,1,0.7,1.2s0.5,0.3,0.8,0.3L40,40.3L40,40.3z M48.9,61.8
				c-0.5,0.5-1.2,0.7-2.1,0.7c-0.2,0-0.5,0-0.7,0c-0.3,0-0.5-0.1-0.8-0.1v2.6c0,0.6,0.1,0.9,0.2,1c0.2,0.2,0.4,0.3,0.8,0.3h0.4v0.2
				h-4v-0.3h0.3c0.4,0,0.7-0.1,0.8-0.4c0.1-0.1,0.1-0.4,0.1-0.9v-5.7c0-0.5-0.1-0.9-0.2-1c-0.2-0.2-0.4-0.3-0.8-0.3h-0.3v-0.2H46
				c0.8,0,1.5,0.1,2,0.2s0.9,0.4,1.2,0.8c0.3,0.4,0.5,0.8,0.5,1.4C49.7,60.8,49.4,61.4,48.9,61.8z M46.1,53.9c-2,0-3.7-1.5-3.7-3.2
				c0-2.5,4-2.7,2.1-6c-0.8-1.1,5.2,2.5,5.2,6C49.7,52.5,48.1,53.9,46.1,53.9z M50.2,38.2h0.3c0,0.3,0.1,0.5,0.3,0.5
				c0.1,0.3,0.4,0.3,0.8,0.3h1.7v-0.4c-0.9-0.3-1.6-0.8-2-1.3c-0.5-0.7-0.8-1.5-0.8-2.3c0-1.1,0.4-2,1.2-2.8
				c0.8-0.8,1.9-1.1,3.2-1.1c0.9,0,1.7,0.1,2.4,0.4c0.7,0.4,1.2,0.8,1.6,1.5c0.4,0.5,0.5,1.2,0.5,2s-0.3,1.6-0.7,2.3
				c-0.5,0.7-1.3,1.1-2.1,1.3V39h1.7c0.4,0,0.7,0,0.8-0.1s0.3-0.4,0.3-0.7h0.3V40h-3.6l0.1-1.9c0.5-0.1,1.1-0.5,1.3-1.1
				c0.3-0.4,0.4-1.1,0.4-2c0-1.1-0.3-2-0.8-2.7c-0.7-0.7-1.3-0.9-2.3-0.9c-0.8,0-1.5,0.3-2,0.9C52.2,33.1,52,34,52,35.1
				c0,0.8,0.1,1.5,0.4,2c0.4,0.5,0.8,0.9,1.3,1.1L54,40h-3.7L50.2,38.2L50.2,38.2z M60.5,65.3c-0.3,0.4-0.6,0.7-1.1,0.9
				c-0.5,0.2-1.2,0.3-2.1,0.3h-4v-0.2h0.3c0.3,0,0.6-0.1,0.8-0.3c0.1-0.2,0.1-0.5,0.1-1v-5.7c0-0.5-0.1-0.9-0.2-1
				c-0.2-0.2-0.4-0.3-0.7-0.3h-0.3v-0.2H57c0.7,0,1.2,0,1.6,0.2c0.6,0.2,1.1,0.4,1.4,0.8s0.5,0.8,0.5,1.4c0,0.4-0.1,0.8-0.4,1.2
				s-0.6,0.6-1.1,0.8c0.6,0.1,1,0.3,1.3,0.6c0.4,0.4,0.6,0.9,0.6,1.5C60.9,64.5,60.8,64.9,60.5,65.3z"/>
		</g>
	</g>
</g>
</svg>
